<?xml version="1.0" encoding="UTF-8"?>
<svg width="110px" height="30px" viewBox="0 0 110 30" version="1.1" xmlns="http://www.w3.org/2000/svg" xmlns:xlink="http://www.w3.org/1999/xlink">
    <title>箭头/下备份 2@2x</title>
    <defs>
        <linearGradient x1="-0.00934773577%" y1="49.9985545%" x2="99.9925218%" y2="49.9985545%" id="linearGradient-1">
            <stop stop-color="#42BBF8" offset="0%"></stop>
            <stop stop-color="#613EF9" offset="100%"></stop>
        </linearGradient>
        <linearGradient x1="100.4113%" y1="49.9985545%" x2="-2.41275447%" y2="49.9985545%" id="linearGradient-2">
            <stop stop-color="#42BBF8" offset="0%"></stop>
            <stop stop-color="#613EF9" offset="100%"></stop>
        </linearGradient>
        <linearGradient x1="50.0071052%" y1="-11.7995483%" x2="50.0071052%" y2="112.029927%" id="linearGradient-3">
            <stop stop-color="#42BBF8" offset="0%"></stop>
            <stop stop-color="#613EF9" offset="100%"></stop>
        </linearGradient>
        <linearGradient x1="49.9984453%" y1="4.71260947%" x2="49.9984453%" y2="102.222005%" id="linearGradient-4">
            <stop stop-color="#F62B9F" offset="0%"></stop>
            <stop stop-color="#FF5BA8" offset="39.24%"></stop>
            <stop stop-color="#FFC8E6" offset="100%"></stop>
        </linearGradient>
        <linearGradient x1="50.0079576%" y1="94.1159287%" x2="50.0079576%" y2="5.32164822%" id="linearGradient-5">
            <stop stop-color="#42BBF8" offset="0%"></stop>
            <stop stop-color="#613EF9" offset="100%"></stop>
        </linearGradient>
    </defs>
    <g id="页面-1" stroke="none" stroke-width="1" fill="none" fill-rule="evenodd">
        <g id="兑换首页-web" transform="translate(-212.000000, -16.000000)" fill-rule="nonzero">
            <g id="未标题-1_复制" transform="translate(212.000000, 16.000000)">
                <g id="编组">
                    <polygon id="路径" fill="url(#linearGradient-1)" points="31.3416395 0.130728405 29.826401 0.130728405 20.1400448 14.278995 30.3144826 29.1401014 31.8297211 29.1401014 21.652855 14.278995"></polygon>
                    <polygon id="路径" fill="url(#linearGradient-2)" points="10.2351445 14.278995 0.0607066698 29.1401014 1.57594515 29.1401014 11.750383 14.278995 2.06402677 0.130728405 0.548788295 0.130728405"></polygon>
                    <polygon id="路径" fill="url(#linearGradient-3)" points="9.96317865 29.1401014 11.4784171 29.1401014 15.9439998 22.616014 20.4120106 29.1401014 21.9248209 29.1401014 15.9439998 20.4034974"></polygon>
                    <polygon id="路径" fill="url(#linearGradient-4)" points="26.3879752 0.130728405 24.875165 0.130728405 15.9439998 13.1715034 7.01526276 0.130728405 5.50002428 0.130728405 15.1863805 14.278995 5.01194266 29.1401014 6.52718114 29.1401014 15.9439998 15.38402 25.3632466 29.1401014 26.8784851 29.1401014 16.701619 14.278995"></polygon>
                    <polygon id="路径" fill="url(#linearGradient-5)" points="19.9215008 0.130728405 15.9439998 5.93950941 11.9664987 0.130728405 10.4512603 0.130728405 15.9439998 8.15202599 21.4367392 0.130728405"></polygon>
                </g>
                <g id="编组" transform="translate(42.737496, 8.139693)" fill="#7E7F9C">
                    <path d="M8.55235564,0.31572143 C7.98656948,-0.0517980472 7.23623504,0.118395536 6.87442329,0.690640629 L4.66712877,4.20304154 L2.45983426,0.690640629 C2.09802251,0.115928963 1.34768807,-0.0517980472 0.781901907,0.31572143 C0.216115744,0.683240908 0.0509936026,1.44541217 0.412805355,2.02012384 L3.22716657,6.49448848 L0.412805355,10.9688531 C0.0509936026,11.5435648 0.218544011,12.3057361 0.781901907,12.6732555 C0.983448051,12.8039839 1.21170513,12.8681149 1.43510567,12.8681149 C1.83576969,12.8681149 2.22914891,12.6658558 2.45983426,12.2983363 L4.66712877,8.78593543 L6.87442329,12.2983363 C7.10510863,12.6658558 7.49848785,12.8681149 7.89915187,12.8681149 C8.12255242,12.8681149 8.34838123,12.8064505 8.55235564,12.6732555 C9.1181418,12.3057361 9.28326394,11.5435648 8.92145219,10.9688531 L6.10709098,6.49448848 L8.92145219,2.02012384 C9.28326394,1.44541217 9.11571354,0.683240908 8.55235564,0.31572143 Z" id="路径"></path>
                    <path d="M65.4709292,0.123328684 C64.8007276,0.123328684 64.2567958,0.675841187 64.2567958,1.35661552 L64.2567958,11.634828 C64.2567958,12.3156024 64.8007276,12.8681149 65.4709292,12.8681149 C66.1411309,12.8681149 66.6850626,12.3156024 66.6850626,11.634828 L66.6850626,1.35661552 C66.6850626,0.675841187 66.1435591,0.123328684 65.4709292,0.123328684 Z" id="路径"></path>
                    <path d="M41.0279957,2.58990236 C41.6981973,2.58990236 42.2421291,2.03738985 42.2421291,1.35661552 C42.2421291,0.675841187 41.6981973,0.123328684 41.0279957,0.123328684 L35.3798472,0.123328684 C34.7096455,0.123328684 34.1657138,0.675841187 34.1657138,1.35661552 L34.1657138,11.634828 C34.1657138,12.3156024 34.7096455,12.8681149 35.3798472,12.8681149 L41.0279957,12.8681149 C41.6981973,12.8681149 42.2421291,12.3156024 42.2421291,11.634828 C42.2421291,10.9540537 41.6981973,10.4015412 41.0279957,10.4015412 L36.5939805,10.4015412 L36.5939805,7.72777532 L41.0279957,7.72777532 C41.6981973,7.72777532 42.2421291,7.17526282 42.2421291,6.49448848 C42.2421291,5.81371415 41.6981973,5.26120165 41.0279957,5.26120165 L36.5939805,5.26120165 L36.5939805,2.58990236 L41.0279957,2.58990236 Z" id="路径"></path>
                    <path d="M56.6806034,2.58990236 C57.3508051,2.58990236 57.8947368,2.03738985 57.8947368,1.35661552 C57.8947368,0.675841187 57.3508051,0.123328684 56.6806034,0.123328684 L51.0324549,0.123328684 C50.3622533,0.123328684 49.8183215,0.675841187 49.8183215,1.35661552 L49.8183215,11.634828 C49.8183215,12.3156024 50.3622533,12.8681149 51.0324549,12.8681149 C51.7026565,12.8681149 52.2465883,12.3156024 52.2465883,11.634828 L52.2465883,7.72777532 L56.6806034,7.72777532 C57.3508051,7.72777532 57.8947368,7.17526282 57.8947368,6.49448848 C57.8947368,5.81371415 57.3508051,5.26120165 56.6806034,5.26120165 L52.2465883,5.26120165 L52.2465883,2.58990236 L56.6806034,2.58990236 Z" id="路径"></path>
                    <path d="M20.6572656,0.123328684 L18.2289988,0.123328684 C17.5587972,0.123328684 17.0148654,0.675841187 17.0148654,1.35661552 L17.0148654,11.634828 C17.0148654,12.3156024 17.5587972,12.8681149 18.2289988,12.8681149 L20.6572656,12.8681149 C24.1175458,12.8681149 26.931907,10.009356 26.931907,6.49448848 C26.931907,2.979621 24.1175458,0.123328684 20.6572656,0.123328684 Z M20.6572656,10.4015412 L19.4431322,10.4015412 L19.4431322,2.58990236 L20.6572656,2.58990236 C22.7771425,2.58990236 24.5036402,4.34116967 24.5036402,6.49695506 C24.5036402,8.65027387 22.7771425,10.4015412 20.6572656,10.4015412 Z" id="形状"></path>
                </g>
            </g>
        </g>
    </g>
</svg>